<svg width="26" height="16" viewBox="0 0 26 16" fill="none" xmlns="http://www.w3.org/2000/svg">
<rect width="26" height="16" rx="4" fill="#848895"/>
<path d="M15.6667 2C16.5507 2 17.3986 2.35119 18.0237 2.97631C18.6488 3.60143 19 4.44928 19 5.33333V10.6667C19 11.5507 18.6488 12.3986 18.0237 13.0237C17.3986 13.6488 16.5507 14 15.6667 14H10.3333C9.44928 14 8.60143 13.6488 7.97631 13.0237C7.35119 12.3986 7 11.5507 7 10.6667V5.33333C7 4.44928 7.35119 3.60143 7.97631 2.97631C8.60143 2.35119 9.44928 2 10.3333 2H15.6667ZM13 5.33333C12.2928 5.33333 11.6145 5.61428 11.1144 6.11438C10.6143 6.61448 10.3333 7.29276 10.3333 8C10.3333 8.70724 10.6143 9.38552 11.1144 9.88562C11.6145 10.3857 12.2928 10.6667 13 10.6667C13.7072 10.6667 14.3855 10.3857 14.8856 9.88562C15.3857 9.38552 15.6667 8.70724 15.6667 8C15.6667 7.29276 15.3857 6.61448 14.8856 6.11438C14.3855 5.61428 13.7072 5.33333 13 5.33333ZM13 6.66667C13.3536 6.66667 13.6928 6.80714 13.9428 7.05719C14.1929 7.30724 14.3333 7.64638 14.3333 8C14.3333 8.35362 14.1929 8.69276 13.9428 8.94281C13.6928 9.19286 13.3536 9.33333 13 9.33333C12.6464 9.33333 12.3072 9.19286 12.0572 8.94281C11.8071 8.69276 11.6667 8.35362 11.6667 8C11.6667 7.64638 11.8071 7.30724 12.0572 7.05719C12.3072 6.80714 12.6464 6.66667 13 6.66667ZM16 4.33333C15.8232 4.33333 15.6536 4.40357 15.5286 4.5286C15.4036 4.65362 15.3333 4.82319 15.3333 5C15.3333 5.17681 15.4036 5.34638 15.5286 5.4714C15.6536 5.59643 15.8232 5.66667 16 5.66667C16.1768 5.66667 16.3464 5.59643 16.4714 5.4714C16.5964 5.34638 16.6667 5.17681 16.6667 5C16.6667 4.82319 16.5964 4.65362 16.4714 4.5286C16.3464 4.40357 16.1768 4.33333 16 4.33333Z" fill="black"/>
</svg>
