<svg width="26" height="16" viewBox="0 0 26 16" fill="none" xmlns="http://www.w3.org/2000/svg">
<rect width="26" height="16" rx="4" fill="#848895"/>
<g clip-path="url(#clip0_1_457)">
<path d="M13.3344 7.82922L15.5847 11.0481H14.6612L12.8248 8.42148V8.42132L12.5552 8.03574L10.4101 4.96729H11.3336L13.0648 7.44365L13.3344 7.82922Z" fill="black"/>
<path d="M16.9195 3H9.08052C8.48378 3 8 3.48378 8 4.08052V11.9195C8 12.5162 8.48378 13 9.08052 13H16.9195C17.5162 13 18 12.5162 18 11.9195V4.08052C18 3.48378 17.5162 3 16.9195 3ZM14.3783 11.4802L12.52 8.77571L10.1935 11.4802H9.59218L12.2531 8.38729L9.59218 4.51467H11.6217L13.3813 7.07563L15.5844 4.51467H16.1857L13.6484 7.46414H13.6482L16.4078 11.4802H14.3783Z" fill="black"/>
</g>
<defs>
<clipPath id="clip0_1_457">
<rect width="10" height="10" fill="white" transform="translate(8 3)"/>
</clipPath>
</defs>
</svg>
