<svg width="26" height="16" viewBox="0 0 26 16" fill="none" xmlns="http://www.w3.org/2000/svg">
<rect width="26" height="16" rx="4" fill="#848895"/>
<path d="M11.6666 9.99992L15.1266 7.99992L11.6666 5.99992V9.99992ZM19.3733 4.77992C19.46 5.09325 19.52 5.51325 19.56 6.04658C19.6066 6.57992 19.6266 7.03992 19.6266 7.43992L19.6666 7.99992C19.6666 9.45992 19.56 10.5333 19.3733 11.2199C19.2066 11.8199 18.82 12.2066 18.22 12.3733C17.9066 12.4599 17.3333 12.5199 16.4533 12.5599C15.5866 12.6066 14.7933 12.6266 14.06 12.6266L13 12.6666C10.2066 12.6666 8.46665 12.5599 7.77998 12.3733C7.17998 12.2066 6.79331 11.8199 6.62665 11.2199C6.53998 10.9066 6.47998 10.4866 6.43998 9.95325C6.39331 9.41992 6.37331 8.95992 6.37331 8.55992L6.33331 7.99992C6.33331 6.53992 6.43998 5.46659 6.62665 4.77992C6.79331 4.17992 7.17998 3.79325 7.77998 3.62659C8.09331 3.53992 8.66665 3.47992 9.54665 3.43992C10.4133 3.39325 11.2066 3.37325 11.94 3.37325L13 3.33325C15.7933 3.33325 17.5333 3.43992 18.22 3.62659C18.82 3.79325 19.2066 4.17992 19.3733 4.77992Z" fill="black"/>
</svg>
