<svg width="44" height="45" viewBox="0 0 44 45" fill="none" xmlns="http://www.w3.org/2000/svg">
<path d="M23.8012 5.02101C23.9358 4.89275 24.095 4.79311 24.2692 4.72812C24.4434 4.66312 24.6289 4.63413 24.8146 4.64288C32.9491 5.02376 39.4762 11.5509 39.8571 19.6854C39.8659 19.8712 39.8368 20.0569 39.7717 20.2311C39.7066 20.4054 39.6069 20.5646 39.4785 20.6992C39.35 20.8338 39.1956 20.9409 39.0246 21.0141C38.8536 21.0873 38.6695 21.125 38.4835 21.125H24.75C24.3853 21.125 24.0356 20.9801 23.7777 20.7223C23.5199 20.4644 23.375 20.1147 23.375 19.75V6.01651C23.375 5.83036 23.4127 5.64615 23.486 5.47503C23.5593 5.30391 23.6665 5.14945 23.8012 5.02101ZM20.1987 9.14601C20.3335 9.27445 20.4407 9.42891 20.514 9.60003C20.5873 9.77115 20.625 9.95536 20.625 10.1415V20.4375C20.625 21.3492 20.9872 22.2235 21.6318 22.8682C22.2765 23.5128 23.1508 23.875 24.0625 23.875H34.3585C34.5446 23.8748 34.7289 23.9124 34.9001 23.9855C35.0712 24.0586 35.2258 24.1657 35.3544 24.3003C35.4829 24.4349 35.5828 24.5942 35.648 24.7686C35.7132 24.9429 35.7423 25.1287 35.7335 25.3146C35.3375 33.6994 28.4171 40.375 19.9375 40.375C11.2049 40.375 4.125 33.2951 4.125 24.5625C4.125 16.0815 10.8006 9.16113 19.1854 8.76788C19.3711 8.75913 19.5566 8.78812 19.7308 8.85312C19.905 8.91811 20.0642 9.01775 20.1987 9.14601Z" fill="#002B6B"/>
</svg>
