<svg width="44" height="45" viewBox="0 0 44 45" fill="none" xmlns="http://www.w3.org/2000/svg">
<path d="M22 2.33337L5.5 9.66671V20.6667C5.5 30.8417 12.54 40.3567 22 42.6667C31.46 40.3567 38.5 30.8417 38.5 20.6667V9.66671L22 2.33337ZM22 13.3334C24.5667 13.3334 27.1333 15.35 27.1333 17.9167V20.6667C28.2333 20.6667 29.3333 21.7667 29.3333 23.05V29.4667C29.3333 30.5667 28.2333 31.6667 26.95 31.6667H16.8667C15.7667 31.6667 14.6667 30.5667 14.6667 29.2834V22.8667C14.6667 21.7667 15.7667 20.6667 16.8667 20.6667V17.9167C16.8667 15.35 19.4333 13.3334 22 13.3334ZM22 15.5334C20.5333 15.5334 19.25 16.45 19.25 17.9167V20.6667H24.75V17.9167C24.75 16.45 23.4667 15.5334 22 15.5334Z" fill="#002B6B"/>
</svg>
