<svg width="45" height="45" viewBox="0 0 45 45" fill="none" xmlns="http://www.w3.org/2000/svg">
<path d="M17.1961 10.488C18.2924 7.27963 22.7254 7.18246 24.0253 10.1965L24.1353 10.4898L25.6148 14.8165C25.9538 15.8087 26.5018 16.7167 27.2216 17.4792C27.9414 18.2417 28.8163 18.841 29.7874 19.2366L30.1853 19.3851L34.5119 20.8628C37.7203 21.9591 37.8174 26.3921 34.8053 27.692L34.5119 27.802L30.1853 29.2815C29.1927 29.6203 28.2843 30.1681 27.5215 30.8879C26.7586 31.6078 26.1591 32.4828 25.7633 33.4541L25.6148 33.8501L24.1371 38.1786C23.0408 41.387 18.6078 41.4841 17.3098 38.472L17.1961 38.1786L15.7184 33.852C15.3796 32.8594 14.8318 31.951 14.112 31.1882C13.3921 30.4253 12.5171 29.8258 11.5458 29.43L11.1498 29.2815L6.82311 27.8038C3.61295 26.7075 3.51578 22.2745 6.52978 20.9765L6.82311 20.8628L11.1498 19.3851C12.142 19.0461 13.05 18.4981 13.8126 17.7783C14.5751 17.0585 15.1743 16.1836 15.5699 15.2125L15.7184 14.8165L17.1961 10.488ZM35.3333 4.16663C35.6763 4.16663 36.0124 4.26284 36.3034 4.44432C36.5944 4.62581 36.8287 4.8853 36.9796 5.19329L37.0676 5.40779L37.7093 7.28879L39.5921 7.93046C39.9358 8.04723 40.2371 8.26342 40.4579 8.55162C40.6786 8.83982 40.8088 9.18706 40.832 9.54933C40.8551 9.9116 40.7702 10.2726 40.588 10.5866C40.4058 10.9005 40.1345 11.1533 39.8084 11.313L39.5921 11.401L37.7111 12.0426L37.0694 13.9255C36.9525 14.2691 36.7361 14.5702 36.4478 14.7908C36.1595 15.0113 35.8122 15.1413 35.45 15.1643C35.0877 15.1873 34.7268 15.1022 34.4129 14.9198C34.0991 14.7375 33.8464 14.466 33.6869 14.14L33.5989 13.9255L32.9573 12.0445L31.0744 11.4028C30.7307 11.286 30.4294 11.0698 30.2087 10.7816C29.988 10.4934 29.8578 10.1462 29.8346 9.78392C29.8114 9.42165 29.8963 9.06065 30.0785 8.74668C30.2608 8.43271 30.5321 8.1799 30.8581 8.02029L31.0744 7.93229L32.9554 7.29063L33.5971 5.40779C33.7207 5.04557 33.9546 4.73113 34.266 4.50854C34.5773 4.28596 34.9505 4.1664 35.3333 4.16663Z" fill="#002B6B"/>
</svg>
