<svg width="44" height="45" viewBox="0 0 44 45" fill="none" xmlns="http://www.w3.org/2000/svg">
<path d="M29.161 4.16675C29.161 4.92575 29.777 5.54175 30.536 5.54175H37.0132L23.375 19.1817V15.1667C23.375 14.8021 23.2301 14.4523 22.9723 14.1945C22.7144 13.9366 22.3647 13.7917 22 13.7917C21.6353 13.7917 21.2856 13.9366 21.0277 14.1945C20.7699 14.4523 20.625 14.8021 20.625 15.1667V22.5001C20.625 23.2591 21.241 23.8751 22 23.8751H29.3333C29.698 23.8751 30.0477 23.7302 30.3056 23.4724C30.5635 23.2145 30.7083 22.8648 30.7083 22.5001C30.7083 22.1354 30.5635 21.7857 30.3056 21.5278C30.0477 21.2699 29.698 21.1251 29.3333 21.1251H25.3183L38.9583 7.48508V13.9641C38.9583 14.3288 39.1032 14.6785 39.3611 14.9364C39.6189 15.1942 39.9687 15.3391 40.3333 15.3391C40.698 15.3391 41.0477 15.1942 41.3056 14.9364C41.5635 14.6785 41.7083 14.3288 41.7083 13.9641V4.16675C41.7083 3.80208 41.5635 3.45234 41.3056 3.19448C41.0477 2.93661 40.698 2.79175 40.3333 2.79175H30.536C30.1713 2.79175 29.8216 2.93661 29.5637 3.19448C29.3059 3.45234 29.161 3.80208 29.161 4.16675Z" fill="#002B6B"/>
<path d="M36.212 14.1217C36.2526 15.1844 36.7021 16.1903 37.4666 16.9296C38.2311 17.6688 39.2516 18.0842 40.315 18.0891C40.3333 19.4201 40.3333 20.8849 40.3333 22.5001C40.3333 31.1424 40.3333 35.4636 37.6475 38.1476C34.9653 40.8334 30.6423 40.8334 22 40.8334C13.3577 40.8334 9.03651 40.8334 6.35067 38.1476C3.66667 35.4654 3.66667 31.1424 3.66667 22.5001C3.66667 13.8577 3.66667 9.53658 6.35067 6.85075C9.03834 4.16675 13.3577 4.16675 22 4.16675C23.6152 4.16675 25.08 4.16675 26.411 4.18508C26.4159 5.24851 26.8313 6.26897 27.5705 7.03347C28.3098 7.79797 29.3157 8.24745 30.3783 8.28808L25.5695 13.0969C25.1145 12.3114 24.4131 11.6979 23.5741 11.3515C22.735 11.0051 21.8051 10.9451 20.9285 11.181C20.0519 11.4168 19.2775 11.9352 18.7255 12.6558C18.1734 13.3764 17.8745 14.259 17.875 15.1667V22.5001C17.875 23.5941 18.3096 24.6433 19.0832 25.4169C19.8568 26.1905 20.906 26.6251 22 26.6251H29.3333C30.2411 26.6256 31.1237 26.3267 31.8443 25.7746C32.5649 25.2226 33.0833 24.4482 33.3191 23.5716C33.5549 22.695 33.495 21.7651 33.1486 20.926C32.8022 20.0869 32.1887 19.3856 31.4032 18.9306L36.212 14.1217Z" fill="#002B6B"/>
</svg>
