<svg width="44" height="45" viewBox="0 0 44 45" fill="none" xmlns="http://www.w3.org/2000/svg">
<path fill-rule="evenodd" clip-rule="evenodd" d="M17.776 4.25563C18.1026 3.32679 18.7101 2.52256 19.5143 1.95438C20.3184 1.38619 21.2794 1.08219 22.264 1.08449H24.2C25.2779 1.08144 26.3239 1.45036 27.1614 2.12897C27.9988 2.80759 28.5766 3.75435 28.7971 4.80949C29.0175 5.86462 28.8673 6.96351 28.3716 7.92071C27.8759 8.8779 27.0652 9.63479 26.0763 10.0636L21.9308 11.8771C21.7537 11.9527 21.609 12.0885 21.5223 12.2605H26.9217C27.4426 12.2605 27.9423 12.4674 28.3106 12.8358C28.679 13.2042 28.886 13.7038 28.886 14.2248C28.886 14.7457 28.679 15.2454 28.3106 15.6137C27.9423 15.9821 27.4426 16.1891 26.9217 16.1891H19.4731C19.2149 16.1895 18.9591 16.139 18.7204 16.0404C18.4818 15.9419 18.2649 15.7973 18.0821 15.6148C17.8994 15.4324 17.7544 15.2157 17.6555 14.9772C17.5566 14.7387 17.5057 14.483 17.5057 14.2248V12.6376C17.5057 10.7456 18.6245 9.03592 20.3563 8.27849L24.5048 6.46506C24.668 6.39818 24.8026 6.27623 24.8852 6.1204C24.9678 5.96458 24.9932 5.78473 24.957 5.61213C24.9207 5.43952 24.8252 5.28507 24.6869 5.17563C24.5486 5.06618 24.3763 5.00866 24.2 5.01306H22.264C22.0919 5.01112 21.9236 5.06355 21.7831 5.16287C21.6426 5.2622 21.537 5.40335 21.4814 5.56621C21.3953 5.80951 21.2622 6.03348 21.0896 6.22533C20.917 6.41718 20.7083 6.57315 20.4754 6.68434C20.0051 6.90891 19.4648 6.93743 18.9734 6.76363C18.7301 6.67758 18.5061 6.54445 18.3143 6.37184C18.1224 6.19923 17.9665 5.99052 17.8553 5.75763C17.6307 5.28729 17.6022 4.747 17.776 4.25563ZM36.96 1.97706C37.3093 1.57915 37.7715 1.29711 38.2852 1.16851C38.7988 1.03991 39.3394 1.07085 39.835 1.25722C40.3306 1.44358 40.7577 1.77651 41.0593 2.21168C41.3609 2.64684 41.5228 3.16358 41.5234 3.69306V9.47278C42.0243 9.50115 42.4954 9.72013 42.84 10.0848C43.1846 10.4495 43.3766 10.9322 43.3766 11.4339C43.3766 11.9357 43.1846 12.4184 42.84 12.783C42.4954 13.1477 42.0243 13.3667 41.5234 13.3951V14.2279C41.5234 14.7489 41.3164 15.2485 40.9481 15.6169C40.5797 15.9853 40.0801 16.1922 39.5591 16.1922C39.0382 16.1922 38.5385 15.9853 38.1702 15.6169C37.8018 15.2485 37.5948 14.7489 37.5948 14.2279V13.3982H32.7863C32.278 13.3991 31.7803 13.2533 31.3529 12.9782C30.9256 12.7032 30.5867 12.3106 30.3769 11.8477C30.1672 11.3847 30.0955 10.8711 30.1706 10.3684C30.2456 9.86574 30.4642 9.39542 30.8 9.01392L36.96 1.97706ZM35.6243 9.46963L37.5948 7.21621V9.46963H35.6243ZM28.0185 43.8713C26.09 44.0779 24.1489 43.6176 22.5185 42.5671C14.3809 37.0886 7.37985 30.0876 1.9014 21.9499C0.87198 20.3035 0.438339 18.3539 0.672845 16.4264C0.90735 14.4988 1.79582 12.71 3.18997 11.3585L4.38426 10.1642C4.9197 9.63449 5.64249 9.33737 6.39569 9.33737C7.14888 9.33737 7.87167 9.63449 8.40711 10.1642L13.2471 15.1928C13.7749 15.7229 14.0712 16.4405 14.0712 17.1885C14.0712 17.9365 13.7749 18.6541 13.2471 19.1842C12.7174 19.7196 12.4203 20.4424 12.4203 21.1956C12.4203 21.9488 12.7174 22.6716 13.2471 23.2071L21.2614 31.2213C21.7968 31.7511 22.5196 32.0482 23.2728 32.0482C24.026 32.0482 24.7488 31.7511 25.2843 31.2213C25.8144 30.6936 26.5319 30.3973 27.28 30.3973C28.028 30.3973 28.7456 30.6936 29.2757 31.2213L34.3043 36.2185C34.834 36.7539 35.1311 37.4767 35.1311 38.2299C35.1311 38.9831 34.834 39.7059 34.3043 40.2413L33.11 41.4356C31.7405 42.8047 29.9439 43.6642 28.0185 43.8713Z" fill="#002B6B"/>
</svg>
