<svg width="44" height="45" viewBox="0 0 44 45" fill="none" xmlns="http://www.w3.org/2000/svg">
<g clip-path="url(#clip0_1_371)">
<path fill-rule="evenodd" clip-rule="evenodd" d="M15.5194 6.91137L15.1549 8.03966C14.0549 9.83109 12.8794 11.8582 11.792 13.9702C10.3337 16.7957 8.89115 20.0297 8.06457 23.2008C6.41772 17.0188 6.54657 8.97937 6.79486 4.47252C6.85982 3.49069 7.264 2.56198 7.93823 1.84532C8.61247 1.12866 9.51482 0.668619 10.4909 0.543944C11.0751 0.462366 11.6698 0.497856 12.2402 0.648345C12.8107 0.798835 13.3454 1.06132 13.8134 1.4205C14.2814 1.77969 14.6733 2.2284 14.9662 2.74051C15.2591 3.25261 15.4471 3.81787 15.5194 4.40337V6.91137ZM31.79 31.8719C32.3651 31.7399 32.9214 31.4759 33.4086 31.0768C35.1183 29.6845 35.2503 26.5134 33.858 24.8037C32.6875 23.3607 31.1964 22.2108 29.5035 21.4453C27.8105 20.6799 25.9622 20.32 24.1057 20.3942C23.6549 20.4412 23.2069 20.5126 22.7637 20.6079C22.0244 20.7482 21.3062 20.9827 20.6266 21.3057C20.3996 21.4286 20.1506 21.5057 19.8938 21.5325C19.637 21.5592 19.3775 21.5352 19.13 21.4616C18.8825 21.3881 18.6519 21.2665 18.4514 21.1039C18.2509 20.9412 18.0844 20.7407 17.9614 20.5137C17.8384 20.2867 17.7614 20.0377 17.7346 19.7809C17.7078 19.5241 17.7319 19.2645 17.8055 19.0171C17.954 18.5172 18.295 18.0969 18.7534 17.8485C19.5863 17.3991 20.7586 17.0188 21.9434 16.7642C23.1409 16.5128 24.5206 16.3525 25.8029 16.4437L28.8734 10.0637C29.1095 9.52282 29.2356 8.9404 29.2443 8.35034C29.2531 7.76028 29.1443 7.17439 28.9243 6.6268C28.7043 6.0792 28.3776 5.58087 27.9631 5.16083C27.5486 4.74079 27.0546 4.40745 26.51 4.18023C25.6057 3.79084 24.594 3.7281 23.6485 4.00275C22.703 4.27741 21.8824 4.87236 21.3274 5.68566C18.216 10.3434 11.6537 20.6205 11.2986 27.5757C11.0332 32.7239 11.007 37.8816 11.22 43.0322C11.2394 43.4285 11.4111 43.8021 11.6992 44.0749C11.9872 44.3478 12.3695 44.4989 12.7663 44.4968H27.6886C27.9939 44.4985 28.2974 44.4507 28.5874 44.3554C29.9246 43.8964 31.1696 43.2036 32.2646 42.3094C33.9065 40.9754 35.1647 39.2292 35.9103 37.2494C36.1493 36.615 36.2229 35.9303 36.124 35.2597C36.0251 34.5891 35.7571 33.9547 35.3451 33.4163C34.9332 32.878 34.3909 32.4534 33.7695 32.1827C33.1481 31.9119 32.4679 31.8039 31.7931 31.8688M21.934 35.4422C21.2651 34.6212 20.9497 33.5681 21.0573 32.5145C21.1649 31.461 21.6865 30.4933 22.5076 29.8244C23.3286 29.1555 24.3817 28.8401 25.4353 28.9477C26.4888 29.0552 27.4565 29.5769 28.1254 30.3979C29.0023 31.4728 30.3254 31.9725 31.6077 31.8499C30.9661 31.9974 30.371 32.3013 29.8752 32.7345C29.3795 33.1677 28.9987 33.7167 28.7666 34.3328C28.5183 34.9889 28.1015 35.568 27.5582 36.0117C27.0149 36.4555 26.3642 36.7482 25.6717 36.8603C24.9792 36.9725 24.2694 36.9002 23.6138 36.6507C22.9581 36.4012 22.3798 35.9833 21.9371 35.4391" fill="#002B6B"/>
</g>
<defs>
<clipPath id="clip0_1_371">
<rect width="44" height="44" fill="white" transform="translate(0 0.5)"/>
</clipPath>
</defs>
</svg>
