<svg width="46" height="47" viewBox="0 0 46 47" fill="none" xmlns="http://www.w3.org/2000/svg">
<path d="M34.25 6.25C35.7418 6.25 37.1726 6.8558 38.2275 7.93414C39.2824 9.01247 39.875 10.475 39.875 12V35C39.875 36.525 39.2824 37.9875 38.2275 39.0659C37.1726 40.1442 35.7418 40.75 34.25 40.75H11.75C10.2582 40.75 8.82742 40.1442 7.77252 39.0659C6.71763 37.9875 6.125 36.525 6.125 35V12C6.125 10.475 6.71763 9.01247 7.77252 7.93414C8.82742 6.8558 10.2582 6.25 11.75 6.25H34.25ZM29.9506 18.3116C29.599 17.9523 29.1222 17.7504 28.625 17.7504C28.1278 17.7504 27.651 17.9523 27.2994 18.3116L23 22.7046L20.5756 20.2283C20.224 19.8689 19.7472 19.6671 19.25 19.6671C18.7528 19.6671 18.276 19.8689 17.9244 20.2283L12.2994 25.9783C11.9479 26.3377 11.7504 26.8251 11.7504 27.3333C11.7504 27.8416 11.9479 28.329 12.2994 28.6884L12.4756 28.8475C12.8364 29.1336 13.2869 29.2752 13.7425 29.246C14.1982 29.2167 14.6278 29.0184 14.9506 28.6884L19.25 24.2954L21.6744 26.7717L21.8506 26.9308C22.2114 27.2169 22.6619 27.3586 23.1175 27.3293C23.5732 27.3 24.0028 27.1018 24.3256 26.7717L28.625 22.3787L31.0494 24.8551C31.403 25.2042 31.8766 25.3974 32.3683 25.393C32.8599 25.3887 33.3301 25.1871 33.6778 24.8317C34.0254 24.4764 34.2226 23.9956 34.2269 23.4931C34.2312 22.9906 34.0422 22.5064 33.7006 22.1449L29.9506 18.3116Z" fill="#002B6B"/>
</svg>
