<svg width="44" height="45" viewBox="0 0 44 45" fill="none" xmlns="http://www.w3.org/2000/svg">
<path d="M11 24.3334H3.66666C2.56666 24.3334 1.83333 25.0667 1.83333 26.1667V40.8334C1.83333 41.9334 2.56666 42.6667 3.66666 42.6667H11C12.1 42.6667 12.8333 41.9334 12.8333 40.8334V26.1667C12.8333 25.0667 12.1 24.3334 11 24.3334ZM40.3333 17H33C31.9 17 31.1667 17.7334 31.1667 18.8334V40.8334C31.1667 41.9334 31.9 42.6667 33 42.6667H40.3333C41.4333 42.6667 42.1667 41.9334 42.1667 40.8334V18.8334C42.1667 17.7334 41.4333 17 40.3333 17ZM25.6667 2.33337H18.3333C17.2333 2.33337 16.5 3.06671 16.5 4.16671V40.8334C16.5 41.9334 17.2333 42.6667 18.3333 42.6667H25.6667C26.7667 42.6667 27.5 41.9334 27.5 40.8334V4.16671C27.5 3.06671 26.7667 2.33337 25.6667 2.33337Z" fill="#002B6B"/>
</svg>
