<svg width="1441" height="3392" viewBox="0 0 1441 3392" fill="none" xmlns="http://www.w3.org/2000/svg">
<g clip-path="url(#clip0_294_327)">
<rect width="1440" height="3392" transform="translate(0.688477)" fill="black"/>
<g filter="url(#filter0_f_294_327)">
<circle cx="101.188" cy="50.5" r="228.5" fill="#6843EC"/>
</g>
<path d="M829.593 1615.64C829.642 1615.6 829.7 1615.56 829.764 1615.54C829.827 1615.51 829.894 1615.5 829.962 1615.51C832.92 1615.65 835.293 1618.02 835.432 1620.98C835.435 1621.04 835.425 1621.11 835.401 1621.17C835.377 1621.24 835.341 1621.3 835.294 1621.35C835.248 1621.39 835.191 1621.43 835.129 1621.46C835.067 1621.49 835 1621.5 834.932 1621.5H829.938C829.806 1621.5 829.679 1621.45 829.585 1621.35C829.491 1621.26 829.438 1621.13 829.438 1621V1616.01C829.438 1615.94 829.452 1615.87 829.479 1615.81C829.505 1615.75 829.544 1615.69 829.593 1615.64ZM828.283 1617.14C828.332 1617.19 828.371 1617.25 828.398 1617.31C828.425 1617.37 828.438 1617.44 828.438 1617.51V1621.25C828.438 1621.58 828.57 1621.9 828.805 1622.13C829.039 1622.37 829.357 1622.5 829.688 1622.5H833.432C833.5 1622.5 833.567 1622.51 833.629 1622.54C833.692 1622.57 833.748 1622.61 833.795 1622.65C833.841 1622.7 833.878 1622.76 833.901 1622.82C833.925 1622.89 833.936 1622.96 833.932 1623.02C833.788 1626.07 831.272 1628.5 828.188 1628.5C825.013 1628.5 822.438 1625.93 822.438 1622.75C822.438 1619.67 824.866 1617.15 827.915 1617.01C827.983 1617 828.05 1617.01 828.113 1617.04C828.177 1617.06 828.235 1617.1 828.283 1617.14Z" fill="black"/>
<g clip-path="url(#clip1_294_327)">
<path fill-rule="evenodd" clip-rule="evenodd" d="M828.594 1615.2C828.698 1614.9 828.892 1614.64 829.148 1614.46C829.403 1614.28 829.709 1614.19 830.022 1614.19H830.638C830.981 1614.19 831.314 1614.3 831.581 1614.52C831.847 1614.73 832.031 1615.04 832.101 1615.37C832.171 1615.71 832.124 1616.06 831.966 1616.36C831.808 1616.67 831.55 1616.91 831.235 1617.04L829.916 1617.62C829.86 1617.64 829.814 1617.69 829.786 1617.74H831.504C831.67 1617.74 831.829 1617.81 831.946 1617.93C832.064 1618.04 832.129 1618.2 832.129 1618.37C832.129 1618.53 832.064 1618.69 831.946 1618.81C831.829 1618.93 831.67 1618.99 831.504 1618.99H829.134C829.052 1618.99 828.971 1618.98 828.895 1618.94C828.819 1618.91 828.75 1618.87 828.692 1618.81C828.634 1618.75 828.588 1618.68 828.556 1618.61C828.525 1618.53 828.508 1618.45 828.508 1618.37V1617.86C828.508 1617.26 828.864 1616.72 829.415 1616.48L830.735 1615.9C830.787 1615.88 830.83 1615.84 830.857 1615.79C830.883 1615.74 830.891 1615.68 830.879 1615.63C830.868 1615.57 830.837 1615.52 830.793 1615.49C830.749 1615.45 830.695 1615.43 830.638 1615.44H830.022C829.968 1615.44 829.914 1615.45 829.869 1615.48C829.825 1615.52 829.791 1615.56 829.773 1615.61C829.746 1615.69 829.704 1615.76 829.649 1615.82C829.594 1615.88 829.527 1615.93 829.453 1615.97C829.304 1616.04 829.132 1616.05 828.975 1615.99C828.898 1615.97 828.827 1615.92 828.766 1615.87C828.705 1615.81 828.655 1615.75 828.62 1615.67C828.548 1615.52 828.539 1615.35 828.594 1615.2ZM834.698 1614.47C834.81 1614.34 834.957 1614.25 835.12 1614.21C835.284 1614.17 835.456 1614.18 835.613 1614.24C835.771 1614.3 835.907 1614.41 836.003 1614.54C836.099 1614.68 836.15 1614.85 836.15 1615.02V1616.86C836.31 1616.86 836.46 1616.93 836.569 1617.05C836.679 1617.17 836.74 1617.32 836.74 1617.48C836.74 1617.64 836.679 1617.79 836.569 1617.91C836.46 1618.02 836.31 1618.09 836.15 1618.1V1618.37C836.15 1618.53 836.085 1618.69 835.967 1618.81C835.85 1618.93 835.691 1618.99 835.525 1618.99C835.36 1618.99 835.201 1618.93 835.084 1618.81C834.966 1618.69 834.9 1618.53 834.9 1618.37V1618.1H833.37C833.209 1618.1 833.05 1618.06 832.914 1617.97C832.778 1617.88 832.671 1617.76 832.604 1617.61C832.537 1617.46 832.514 1617.3 832.538 1617.14C832.562 1616.98 832.632 1616.83 832.738 1616.71L834.698 1614.47ZM834.273 1616.85L834.9 1616.14V1616.85H834.273ZM831.853 1627.8C831.24 1627.87 830.622 1627.72 830.103 1627.39C827.514 1625.64 825.287 1623.41 823.543 1620.83C823.216 1620.3 823.078 1619.68 823.153 1619.07C823.227 1618.45 823.51 1617.89 823.953 1617.46L824.333 1617.08C824.504 1616.91 824.734 1616.81 824.973 1616.81C825.213 1616.81 825.443 1616.91 825.613 1617.08L827.153 1618.68C827.321 1618.84 827.416 1619.07 827.416 1619.31C827.416 1619.55 827.321 1619.78 827.153 1619.95C826.985 1620.12 826.89 1620.35 826.89 1620.59C826.89 1620.82 826.985 1621.05 827.153 1621.23L829.703 1623.78C829.874 1623.94 830.104 1624.04 830.343 1624.04C830.583 1624.04 830.813 1623.94 830.983 1623.78C831.152 1623.61 831.38 1623.51 831.618 1623.51C831.856 1623.51 832.085 1623.61 832.253 1623.78L833.853 1625.37C834.022 1625.54 834.117 1625.77 834.117 1626.01C834.117 1626.24 834.022 1626.47 833.853 1626.65L833.473 1627.03C833.038 1627.46 832.466 1627.73 831.853 1627.8Z" fill="black"/>
</g>
<g filter="url(#filter1_f_294_327)">
<path d="M583.374 502.546C411.889 926.344 284.394 1504.06 -34.3912 873.987" stroke="url(#paint0_linear_294_327)" stroke-width="18"/>
</g>
<g filter="url(#filter2_f_294_327)">
<path d="M583.374 502.546C411.889 926.344 284.394 1504.06 -34.3912 873.987" stroke="url(#paint1_linear_294_327)" stroke-width="18"/>
</g>
<path d="M583.374 502.546C411.889 926.344 284.394 1504.06 -34.3912 873.987" stroke="url(#paint2_linear_294_327)" stroke-width="4"/>
<g filter="url(#filter3_f_294_327)">
<path d="M785.859 1294.52C1209.66 1123.04 1787.37 995.543 1157.3 676.757" stroke="url(#paint3_linear_294_327)" stroke-width="18"/>
</g>
<g filter="url(#filter4_f_294_327)">
<path d="M785.859 1294.52C1209.66 1123.04 1787.37 995.543 1157.3 676.757" stroke="url(#paint4_linear_294_327)" stroke-width="18"/>
</g>
<path d="M785.859 1294.52C1209.66 1123.04 1787.37 995.543 1157.3 676.757" stroke="url(#paint5_linear_294_327)" stroke-width="4"/>
<g filter="url(#filter5_f_294_327)">
<path d="M721.763 2004.61C228.683 2204.13 -443.471 2352.47 289.599 2723.37" stroke="url(#paint6_linear_294_327)" stroke-width="18"/>
</g>
<g filter="url(#filter6_f_294_327)">
<path d="M721.763 2004.61C228.683 2204.13 -443.471 2352.47 289.599 2723.37" stroke="url(#paint7_linear_294_327)" stroke-width="18"/>
</g>
<path d="M721.763 2004.61C228.683 2204.13 -443.471 2352.47 289.599 2723.37" stroke="url(#paint8_linear_294_327)" stroke-width="4"/>
<g filter="url(#filter7_f_294_327)">
<path d="M1600.86 2847.09C1429.38 2423.29 1301.88 1845.58 983.099 2475.64" stroke="url(#paint9_linear_294_327)" stroke-width="18"/>
</g>
<g filter="url(#filter8_f_294_327)">
<path d="M1600.86 2847.09C1429.38 2423.29 1301.88 1845.58 983.099 2475.64" stroke="url(#paint10_linear_294_327)" stroke-width="18"/>
</g>
<path d="M1600.86 2847.09C1429.38 2423.29 1301.88 1845.58 983.099 2475.64" stroke="url(#paint11_linear_294_327)" stroke-width="4"/>
</g>
<defs>
<filter id="filter0_f_294_327" x="-476.312" y="-527" width="1155" height="1155" filterUnits="userSpaceOnUse" color-interpolation-filters="sRGB">
<feFlood flood-opacity="0" result="BackgroundImageFix"/>
<feBlend mode="normal" in="SourceGraphic" in2="BackgroundImageFix" result="shape"/>
<feGaussianBlur stdDeviation="174.5" result="effect1_foregroundBlur_294_327"/>
</filter>
<filter id="filter1_f_294_327" x="-117.422" y="424.17" width="784.139" height="812.284" filterUnits="userSpaceOnUse" color-interpolation-filters="sRGB">
<feFlood flood-opacity="0" result="BackgroundImageFix"/>
<feBlend mode="normal" in="SourceGraphic" in2="BackgroundImageFix" result="shape"/>
<feGaussianBlur stdDeviation="37.5" result="effect1_foregroundBlur_294_327"/>
</filter>
<filter id="filter2_f_294_327" x="-117.422" y="424.17" width="784.139" height="812.284" filterUnits="userSpaceOnUse" color-interpolation-filters="sRGB">
<feFlood flood-opacity="0" result="BackgroundImageFix"/>
<feBlend mode="normal" in="SourceGraphic" in2="BackgroundImageFix" result="shape"/>
<feGaussianBlur stdDeviation="37.5" result="effect1_foregroundBlur_294_327"/>
</filter>
<filter id="filter3_f_294_327" x="707.483" y="593.727" width="812.284" height="784.139" filterUnits="userSpaceOnUse" color-interpolation-filters="sRGB">
<feFlood flood-opacity="0" result="BackgroundImageFix"/>
<feBlend mode="normal" in="SourceGraphic" in2="BackgroundImageFix" result="shape"/>
<feGaussianBlur stdDeviation="37.5" result="effect1_foregroundBlur_294_327"/>
</filter>
<filter id="filter4_f_294_327" x="707.483" y="593.727" width="812.284" height="784.139" filterUnits="userSpaceOnUse" color-interpolation-filters="sRGB">
<feFlood flood-opacity="0" result="BackgroundImageFix"/>
<feBlend mode="normal" in="SourceGraphic" in2="BackgroundImageFix" result="shape"/>
<feGaussianBlur stdDeviation="37.5" result="effect1_foregroundBlur_294_327"/>
</filter>
<filter id="filter5_f_294_327" x="-118.391" y="1921.27" width="918.529" height="885.129" filterUnits="userSpaceOnUse" color-interpolation-filters="sRGB">
<feFlood flood-opacity="0" result="BackgroundImageFix"/>
<feBlend mode="normal" in="SourceGraphic" in2="BackgroundImageFix" result="shape"/>
<feGaussianBlur stdDeviation="37.5" result="effect1_foregroundBlur_294_327"/>
</filter>
<filter id="filter6_f_294_327" x="-118.391" y="1921.27" width="918.529" height="885.129" filterUnits="userSpaceOnUse" color-interpolation-filters="sRGB">
<feFlood flood-opacity="0" result="BackgroundImageFix"/>
<feBlend mode="normal" in="SourceGraphic" in2="BackgroundImageFix" result="shape"/>
<feGaussianBlur stdDeviation="37.5" result="effect1_foregroundBlur_294_327"/>
</filter>
<filter id="filter7_f_294_327" x="900.068" y="2113.18" width="784.138" height="812.285" filterUnits="userSpaceOnUse" color-interpolation-filters="sRGB">
<feFlood flood-opacity="0" result="BackgroundImageFix"/>
<feBlend mode="normal" in="SourceGraphic" in2="BackgroundImageFix" result="shape"/>
<feGaussianBlur stdDeviation="37.5" result="effect1_foregroundBlur_294_327"/>
</filter>
<filter id="filter8_f_294_327" x="900.068" y="2113.18" width="784.138" height="812.285" filterUnits="userSpaceOnUse" color-interpolation-filters="sRGB">
<feFlood flood-opacity="0" result="BackgroundImageFix"/>
<feBlend mode="normal" in="SourceGraphic" in2="BackgroundImageFix" result="shape"/>
<feGaussianBlur stdDeviation="37.5" result="effect1_foregroundBlur_294_327"/>
</filter>
<linearGradient id="paint0_linear_294_327" x1="583.374" y1="827.5" x2="-34.3912" y2="827.5" gradientUnits="userSpaceOnUse">
<stop stop-color="#002215" stop-opacity="0"/>
<stop offset="0.259615"/>
<stop offset="0.471154" stop-color="#00FF22"/>
<stop offset="0.725962" stop-color="#9555FF"/>
<stop offset="1" stop-color="#6030AE" stop-opacity="0"/>
</linearGradient>
<linearGradient id="paint1_linear_294_327" x1="583.374" y1="827.5" x2="-34.3912" y2="827.5" gradientUnits="userSpaceOnUse">
<stop stop-color="#002215" stop-opacity="0"/>
<stop offset="0.259615"/>
<stop offset="0.471154" stop-color="#00FF22" stop-opacity="0"/>
<stop offset="0.725962" stop-color="#9555FF"/>
<stop offset="1" stop-color="#6030AE" stop-opacity="0"/>
</linearGradient>
<linearGradient id="paint2_linear_294_327" x1="583.374" y1="827.5" x2="-34.3912" y2="827.5" gradientUnits="userSpaceOnUse">
<stop stop-color="#002215" stop-opacity="0"/>
<stop offset="0.259615" stop-color="#12734E"/>
<stop offset="0.471154" stop-color="#9CFFA9"/>
<stop offset="0.725962" stop-color="#6030AE"/>
<stop offset="1" stop-color="#6030AE" stop-opacity="0"/>
</linearGradient>
<linearGradient id="paint3_linear_294_327" x1="1110.81" y1="1294.52" x2="1110.81" y2="676.757" gradientUnits="userSpaceOnUse">
<stop stop-color="#002215" stop-opacity="0"/>
<stop offset="0.259615"/>
<stop offset="0.471154" stop-color="#00FF22"/>
<stop offset="0.725962" stop-color="#9555FF"/>
<stop offset="1" stop-color="#6030AE" stop-opacity="0"/>
</linearGradient>
<linearGradient id="paint4_linear_294_327" x1="1110.81" y1="1294.52" x2="1110.81" y2="676.757" gradientUnits="userSpaceOnUse">
<stop stop-color="#002215" stop-opacity="0"/>
<stop offset="0.259615"/>
<stop offset="0.471154" stop-color="#00FF22" stop-opacity="0"/>
<stop offset="0.725962" stop-color="#9555FF"/>
<stop offset="1" stop-color="#6030AE" stop-opacity="0"/>
</linearGradient>
<linearGradient id="paint5_linear_294_327" x1="1110.81" y1="1294.52" x2="1110.81" y2="676.757" gradientUnits="userSpaceOnUse">
<stop stop-color="#002215" stop-opacity="0"/>
<stop offset="0.259615" stop-color="#12734E"/>
<stop offset="0.471154" stop-color="#9CFFA9"/>
<stop offset="0.725962" stop-color="#6030AE"/>
<stop offset="1" stop-color="#6030AE" stop-opacity="0"/>
</linearGradient>
<linearGradient id="paint6_linear_294_327" x1="343.686" y1="2004.61" x2="343.686" y2="2723.37" gradientUnits="userSpaceOnUse">
<stop stop-color="#002215" stop-opacity="0"/>
<stop offset="0.259615"/>
<stop offset="0.471154" stop-color="#00FF22"/>
<stop offset="0.725962" stop-color="#9555FF"/>
<stop offset="1" stop-color="#6030AE" stop-opacity="0"/>
</linearGradient>
<linearGradient id="paint7_linear_294_327" x1="343.686" y1="2004.61" x2="343.686" y2="2723.37" gradientUnits="userSpaceOnUse">
<stop stop-color="#002215" stop-opacity="0"/>
<stop offset="0.259615"/>
<stop offset="0.471154" stop-color="#00FF22" stop-opacity="0"/>
<stop offset="0.725962" stop-color="#9555FF"/>
<stop offset="1" stop-color="#6030AE" stop-opacity="0"/>
</linearGradient>
<linearGradient id="paint8_linear_294_327" x1="343.686" y1="2004.61" x2="343.686" y2="2723.37" gradientUnits="userSpaceOnUse">
<stop stop-color="#002215" stop-opacity="0"/>
<stop offset="0.259615" stop-color="#12734E"/>
<stop offset="0.471154" stop-color="#9CFFA9"/>
<stop offset="0.725962" stop-color="#6030AE"/>
<stop offset="1" stop-color="#6030AE" stop-opacity="0"/>
</linearGradient>
<linearGradient id="paint9_linear_294_327" x1="1600.86" y1="2522.13" x2="983.099" y2="2522.13" gradientUnits="userSpaceOnUse">
<stop stop-color="#002215" stop-opacity="0"/>
<stop offset="0.259615"/>
<stop offset="0.471154" stop-color="#00FF22"/>
<stop offset="0.725962" stop-color="#9555FF"/>
<stop offset="1" stop-color="#6030AE" stop-opacity="0"/>
</linearGradient>
<linearGradient id="paint10_linear_294_327" x1="1600.86" y1="2522.13" x2="983.099" y2="2522.13" gradientUnits="userSpaceOnUse">
<stop stop-color="#002215" stop-opacity="0"/>
<stop offset="0.259615"/>
<stop offset="0.471154" stop-color="#00FF22" stop-opacity="0"/>
<stop offset="0.725962" stop-color="#9555FF"/>
<stop offset="1" stop-color="#6030AE" stop-opacity="0"/>
</linearGradient>
<linearGradient id="paint11_linear_294_327" x1="1600.86" y1="2522.13" x2="983.099" y2="2522.13" gradientUnits="userSpaceOnUse">
<stop stop-color="#002215" stop-opacity="0"/>
<stop offset="0.259615" stop-color="#12734E"/>
<stop offset="0.471154" stop-color="#9CFFA9"/>
<stop offset="0.725962" stop-color="#6030AE"/>
<stop offset="1" stop-color="#6030AE" stop-opacity="0"/>
</linearGradient>
<clipPath id="clip0_294_327">
<rect width="1440" height="3392" fill="white" transform="translate(0.688477)"/>
</clipPath>
<clipPath id="clip1_294_327">
<rect width="14" height="14" fill="white" transform="translate(822.938 1614)"/>
</clipPath>
</defs>
</svg>
