<svg width="22" height="22" viewBox="0 0 22 22" fill="none" xmlns="http://www.w3.org/2000/svg">
<path d="M22 19.3789V20.668H0V1.33203H1.28906V19.3789H22Z" fill="white"/>
<path d="M18.0447 4.97454C16.767 3.26687 15.3187 1.33203 12.332 1.33203C9.3454 1.33203 7.8971 3.26687 6.61938 4.97454C5.49394 6.47823 4.52212 7.77734 2.66406 7.77734V9.06641C5.16729 9.06641 6.43053 7.37894 7.65162 5.74681C8.85444 4.13927 9.99058 2.62109 12.332 2.62109C14.6735 2.62109 15.8096 4.13927 17.0124 5.74681C18.2335 7.37894 19.4968 9.06641 22 9.06641V7.77734C20.1419 7.77734 19.1701 6.47823 18.0447 4.97454ZM18.1328 10.3555H22V18.0898H18.1328V10.3555Z" fill="white"/>
<path d="M12.9766 6.48828H16.8438V18.0898H12.9766V6.48828ZM7.82031 6.48828H11.6875V18.0898H7.82031V6.48828ZM2.66406 10.3555H6.53125V18.0898H2.66406V10.3555Z" fill="white"/>
</svg>
