<svg width="29" height="29" viewBox="0 0 29 29" fill="none" xmlns="http://www.w3.org/2000/svg">
<path d="M26.4102 14.7265C26.2843 14.3957 26.0605 14.1113 25.7686 13.9111C25.4767 13.711 25.1307 13.6047 24.7768 13.6065H20.9163V6.89813C20.916 6.51145 20.7623 6.1407 20.4888 5.86728C20.2154 5.59385 19.8447 5.44011 19.458 5.4398H8.95799C8.57131 5.44011 8.20056 5.59385 7.92713 5.86728C7.65371 6.1407 7.49997 6.51145 7.49966 6.89813V13.6065H3.63799C3.28466 13.6062 2.93952 13.7129 2.64799 13.9125C2.35645 14.1122 2.13217 14.3954 2.00466 14.7249C1.87714 15.0544 1.85236 15.4148 1.93357 15.7587C2.01479 16.1026 2.19819 16.4138 2.45966 16.6515L13.228 26.4398C13.4961 26.6839 13.8457 26.819 14.2082 26.8188C14.5708 26.8186 14.9202 26.683 15.188 26.4386L25.954 16.6515C26.217 16.4152 26.4016 16.1043 26.4831 15.7603C26.5646 15.4163 26.5392 15.0556 26.4102 14.7265ZM8.37466 3.98147C8.06524 3.98147 7.76849 3.85855 7.5497 3.63976C7.33091 3.42096 7.20799 3.12422 7.20799 2.8148C7.20799 2.50538 7.33091 2.20863 7.5497 1.98984C7.76849 1.77105 8.06524 1.64813 8.37466 1.64813H20.0413C20.3507 1.64813 20.6475 1.77105 20.8663 1.98984C21.0851 2.20863 21.208 2.50538 21.208 2.8148C21.208 3.12422 21.0851 3.42096 20.8663 3.63976C20.6475 3.85855 20.3507 3.98147 20.0413 3.98147H8.37466Z" fill="white"/>
</svg>
