<svg width="24" height="22" viewBox="0 0 24 22" fill="none" xmlns="http://www.w3.org/2000/svg">
<path d="M14.4829 19.2225H9.90239C9.06855 19.2225 9.06855 17.9625 9.90239 17.9625H14.4829C15.3167 17.9625 15.3167 19.2225 14.4829 19.2225ZM17.7953 21.745H6.58971C5.75587 21.745 5.75587 20.485 6.58971 20.485H17.7953C18.6291 20.485 18.6291 21.745 17.7953 21.745ZM11.5628 0.53949C8.78575 0.68985 6.28507 1.81237 4.36119 3.54613L6.76219 5.94713C8.04151 4.83497 9.68035 4.08121 11.5628 3.94177V0.53949ZM3.86867 11.6387C4.00251 9.80329 4.72575 8.17705 5.87235 6.83921L3.46575 4.43261C1.72023 6.37133 0.610307 8.81741 0.463867 11.6387H3.86867ZM3.86307 12.8987H0.463867C0.595467 15.3761 1.48027 17.6536 2.91163 19.4916C3.13031 19.7721 3.54639 19.8026 3.81771 19.5725L5.44395 18.1949C5.70827 17.9709 5.73431 17.585 5.52515 17.3087C4.55733 16.0298 3.98011 14.4982 3.86307 12.8987ZM22.2532 6.18933C21.6848 6.88737 20.8411 7.92253 19.8981 9.07753C20.3094 10.062 20.5505 11.1347 20.5505 12.2687C20.5534 14.1002 19.9519 15.8815 18.8394 17.3364C18.6367 17.6018 18.6941 17.984 18.9495 18.1991L20.5684 19.5618C20.8431 19.7931 21.2637 19.7615 21.484 19.4778C23.0878 17.4172 23.9566 14.8796 23.9525 12.2684C23.9528 10.0082 23.32 7.94325 22.2532 6.18933ZM21.5033 5.11329C19.4439 2.45581 16.2945 0.72765 12.8228 0.54033V3.94485C14.9819 4.10949 17.1997 5.11581 18.7745 7.12957C18.7745 7.12957 11.2733 12.6976 11.0064 12.9648C10.7148 13.26 10.5519 13.6587 10.5531 14.0737C10.5544 14.4886 10.7198 14.8863 11.0133 15.1797C11.3067 15.4731 11.7044 15.6386 12.1193 15.6399C12.5343 15.6411 12.933 15.4782 13.2282 15.1866C13.6258 14.7887 21.5033 5.11329 21.5033 5.11329Z" fill="white"/>
</svg>
