<svg width="23" height="24" viewBox="0 0 23 24" fill="none" xmlns="http://www.w3.org/2000/svg">
<path d="M6.30799 10.3119H14.9413C15.8747 10.3119 16.458 9.26189 15.8747 8.56189L11.558 1.44523C11.0913 0.745227 10.0413 0.745227 9.57466 1.44523L5.25799 8.56189C4.79133 9.37856 5.37466 10.3119 6.30799 10.3119Z" fill="white"/>
<path d="M17.041 23.1452C19.9405 23.1452 22.291 20.7947 22.291 17.8952C22.291 14.9957 19.9405 12.6452 17.041 12.6452C14.1415 12.6452 11.791 14.9957 11.791 17.8952C11.791 20.7947 14.1415 23.1452 17.041 23.1452Z" fill="white"/>
<path d="M8.29118 13.2286H1.29118C0.707845 13.2286 0.124512 13.8119 0.124512 14.3952V21.3952C0.124512 21.9786 0.707845 22.5619 1.29118 22.5619H8.29118C8.87451 22.5619 9.45785 21.9786 9.45785 21.3952V14.3952C9.45785 13.8119 8.87451 13.2286 8.29118 13.2286Z" fill="white"/>
</svg>
