<svg width="115" height="112" viewBox="0 0 115 112" fill="none" xmlns="http://www.w3.org/2000/svg">
<path d="M86.875 107.862H51.625C50.4564 107.862 49.3356 107.398 48.5093 106.572C47.683 105.745 47.2188 104.625 47.2188 103.456C47.2188 102.287 47.683 101.167 48.5093 100.34C49.3356 99.514 50.4564 99.0498 51.625 99.0498H86.875C87.2645 99.0498 87.6381 98.8951 87.9136 98.6196C88.189 98.3442 88.3438 97.9706 88.3438 97.5811V85.8311C88.3438 84.6624 88.808 83.5417 89.6343 82.7154C90.4606 81.889 91.5814 81.4248 92.75 81.4248C93.9186 81.4248 95.0394 81.889 95.8657 82.7154C96.692 83.5417 97.1563 84.6624 97.1563 85.8311V97.5811C97.1408 100.303 96.0527 102.909 94.1279 104.834C92.2031 106.759 89.597 107.847 86.875 107.862ZM92.75 31.4873C91.5861 31.4721 90.4742 31.003 89.6511 30.1799C88.8281 29.3569 88.359 28.2449 88.3438 27.0811V15.3311C88.3438 14.9415 88.189 14.5679 87.9136 14.2925C87.6381 14.017 87.2645 13.8623 86.875 13.8623H51.625C50.4564 13.8623 49.3356 13.3981 48.5093 12.5717C47.683 11.7454 47.2188 10.6247 47.2188 9.45605C47.2188 8.28744 47.683 7.1667 48.5093 6.34036C49.3356 5.51403 50.4564 5.0498 51.625 5.0498H86.875C89.597 5.06523 92.2031 6.15338 94.1279 8.07815C96.0527 10.0029 97.1408 12.6091 97.1563 15.3311V27.0811C97.141 28.2449 96.6719 29.3569 95.8489 30.1799C95.0258 31.003 93.9139 31.4721 92.75 31.4873Z" fill="#EF9A9A"/>
<path d="M114.429 54.7523C114.206 54.2279 113.887 53.7498 113.489 53.3423L101.739 41.5923C100.903 40.814 99.7987 40.3902 98.6572 40.4104C97.5157 40.4305 96.4265 40.893 95.6192 41.7003C94.8119 42.5076 94.3495 43.5967 94.3294 44.7382C94.3092 45.8797 94.7329 46.9845 95.5112 47.8198L99.7413 52.0498H69.25C68.0814 52.0498 66.9606 52.514 66.1343 53.3404C65.308 54.1667 64.8438 55.2874 64.8438 56.456C64.8438 57.6247 65.308 58.7454 66.1343 59.5717C66.9606 60.3981 68.0814 60.8623 69.25 60.8623H99.7413L95.5112 65.0923C94.6861 65.9185 94.2226 67.0384 94.2226 68.206C94.2226 69.3737 94.6861 70.4936 95.5112 71.3198C96.3374 72.1449 97.4573 72.6084 98.625 72.6084C99.7927 72.6084 100.913 72.1449 101.739 71.3198L113.489 59.5698C113.887 59.1623 114.206 58.6841 114.429 58.1598C114.662 57.622 114.782 57.0421 114.782 56.456C114.782 55.87 114.662 55.2901 114.429 54.7523Z" fill="white"/>
<path d="M52.095 2.99355C50.8653 2.03164 49.4326 1.36243 47.9057 1.03669C46.3788 0.710946 44.7977 0.73723 43.2825 1.11355L8.0325 9.92605C5.80105 10.4777 3.81884 11.7613 2.40246 13.5717C0.98608 15.3821 0.217245 17.6149 0.218752 19.9135V92.9985C0.217245 95.2972 0.98608 97.53 2.40246 99.3404C3.81884 101.151 5.80105 102.434 8.0325 102.986L43.2825 111.799C44.1027 111.885 44.9298 111.885 45.75 111.799C47.1023 111.806 48.4428 111.546 49.6937 111.032C50.9446 110.518 52.0811 109.761 53.0373 108.805C53.9936 107.848 54.7506 106.712 55.2645 105.461C55.7784 104.21 56.039 102.87 56.0312 101.517V11.101C56.0253 9.54094 55.6685 8.00215 54.9871 6.5987C54.3057 5.19525 53.3173 3.9631 52.095 2.99355Z" fill="#EF5350"/>
</svg>
