<svg width="27" height="27" viewBox="0 0 27 27" fill="none" xmlns="http://www.w3.org/2000/svg">
<path d="M6.67301 25.3181H2.33968C2.05236 25.3181 1.77681 25.2039 1.57365 25.0008C1.37048 24.7976 1.25635 24.5221 1.25635 24.2347V14.4847C1.25635 14.1974 1.37048 13.9219 1.57365 13.7187C1.77681 13.5155 2.05236 13.4014 2.33968 13.4014H6.67301C6.96033 13.4014 7.23588 13.5155 7.43905 13.7187C7.64221 13.9219 7.75635 14.1974 7.75635 14.4847V24.2347C7.75635 24.5221 7.64221 24.7976 7.43905 25.0008C7.23588 25.2039 6.96033 25.3181 6.67301 25.3181ZM3.42301 23.1514H5.58968V15.5681H3.42301V23.1514ZM15.3397 25.3181H11.0063C10.719 25.3181 10.4435 25.2039 10.2403 25.0008C10.0372 24.7976 9.92301 24.5221 9.92301 24.2347V2.56807C9.92301 2.28076 10.0372 2.00521 10.2403 1.80204C10.4435 1.59888 10.719 1.48474 11.0063 1.48474H15.3397C15.627 1.48474 15.9025 1.59888 16.1057 1.80204C16.3089 2.00521 16.423 2.28076 16.423 2.56807V24.2347C16.423 24.5221 16.3089 24.7976 16.1057 25.0008C15.9025 25.2039 15.627 25.3181 15.3397 25.3181ZM12.0897 23.1514H14.2563V3.65141H12.0897V23.1514ZM24.0063 25.3181H19.673C19.3857 25.3181 19.1101 25.2039 18.907 25.0008C18.7038 24.7976 18.5897 24.5221 18.5897 24.2347V7.98474C18.5897 7.69742 18.7038 7.42187 18.907 7.21871C19.1101 7.01554 19.3857 6.90141 19.673 6.90141H24.0063C24.2937 6.90141 24.5692 7.01554 24.7724 7.21871C24.9755 7.42187 25.0897 7.69742 25.0897 7.98474V24.2347C25.0897 24.5221 24.9755 24.7976 24.7724 25.0008C24.5692 25.2039 24.2937 25.3181 24.0063 25.3181ZM20.7563 23.1514H22.923V9.06807H20.7563V23.1514Z" fill="white" fill-opacity="0.5"/>
</svg>
