<svg width="636" height="636" viewBox="0 0 636 636" fill="none" xmlns="http://www.w3.org/2000/svg">
<circle cx="318" cy="318" r="317.759" fill="#0066FF" fill-opacity="0.04" stroke="#B0D0FF" stroke-width="0.48137"/>
<circle cx="318" cy="318" r="265.759" fill="#0066FF" fill-opacity="0.05" stroke="#8AB9FF" stroke-width="0.48137"/>
<circle cx="318" cy="318" r="203.759" fill="#0066FF" fill-opacity="0.07" stroke="#0066FF" stroke-width="0.48137"/>
<circle cx="318" cy="318" r="142.759" fill="#0066FF" fill-opacity="0.34" stroke="#0066FF" stroke-width="0.48137"/>
<path d="M538.927 204.86C542.354 203.276 546.304 203.396 550.037 203.769C550.062 203.771 550.086 203.767 550.11 203.759C550.133 203.751 550.154 203.738 550.172 203.722C550.19 203.705 550.204 203.685 550.214 203.662C550.223 203.64 550.228 203.616 550.228 203.591C550.227 203.519 550.203 203.449 550.16 203.392C550.116 203.334 550.055 203.292 549.986 203.272C547.06 202.413 543.99 202.158 540.962 202.521C554.36 194.227 573.857 187.686 587.54 198.625C583.343 200.486 579.222 203.116 576.906 207.233C575.485 209.576 574.81 212.295 574.97 215.031C575.33 221.711 581.723 226.982 588.187 225.262C599.916 222.14 600.038 206.533 592.042 198.165C598.059 195.811 604.398 194.251 610.773 193.196C610.808 193.191 610.839 193.172 610.86 193.144C610.881 193.116 610.89 193.081 610.886 193.046C610.883 193.018 610.874 192.991 610.86 192.966C610.846 192.941 610.828 192.919 610.806 192.901C610.783 192.884 610.758 192.87 610.73 192.863C610.703 192.855 610.674 192.852 610.646 192.855C604.014 193.609 597.44 194.949 591.132 197.178C577.329 183.487 554.545 189.907 541.452 201.095C543.462 199.376 543.699 195.302 543.128 193.35C543.115 193.285 543.077 193.229 543.022 193.192C542.968 193.155 542.901 193.14 542.836 193.151C542.778 193.166 542.725 193.197 542.682 193.24C542.64 193.283 542.61 193.336 542.596 193.395C541.72 196.987 540.038 199.91 537.458 203.21C536.399 204.564 536.294 206.075 538.927 204.86ZM591.161 202.574C596.295 209.16 595.096 221.408 587.144 222.885C582.536 223.743 578.066 220.594 577.244 215.979C576.771 213.296 577.244 210.532 578.582 208.159C580.709 204.163 584.674 201.572 588.671 199.635C589.593 200.533 590.426 201.517 591.161 202.574Z" fill="white"/>
<path d="M595.648 225.461C596.29 224.789 596.99 224.176 597.739 223.627C597.772 223.603 597.812 223.591 597.853 223.592C597.893 223.593 597.932 223.607 597.964 223.633C597.995 223.658 598.018 223.694 598.027 223.733C598.037 223.773 598.033 223.814 598.016 223.851C597.8 224.302 597.495 224.704 597.12 225.033C596.744 225.362 596.305 225.612 595.831 225.767C595.791 225.779 595.75 225.777 595.712 225.762C595.674 225.747 595.642 225.72 595.621 225.685C595.6 225.65 595.592 225.609 595.597 225.568C595.601 225.528 595.62 225.49 595.648 225.461Z" fill="white"/>
<path d="M599.305 221.665C601.297 217.533 602.28 212.639 601.311 207.718C601.285 207.617 601.436 207.586 601.485 207.671C603.974 212.102 602.694 218.315 599.449 221.76C599.434 221.773 599.416 221.781 599.396 221.782C599.377 221.783 599.357 221.778 599.341 221.767C599.325 221.757 599.312 221.741 599.306 221.722C599.299 221.704 599.299 221.684 599.305 221.665Z" fill="white"/>
<path d="M559.617 188.059C557.632 188.402 555.716 189.068 553.946 190.031C553.933 190.037 553.919 190.038 553.906 190.034C553.893 190.03 553.881 190.021 553.874 190.01C553.866 189.999 553.862 189.985 553.863 189.971C553.864 189.958 553.87 189.945 553.88 189.935C555.318 188.443 557.561 187.708 559.616 187.938C559.629 187.941 559.642 187.948 559.651 187.959C559.66 187.97 559.664 187.984 559.665 187.998C559.665 188.012 559.66 188.025 559.652 188.037C559.643 188.048 559.631 188.056 559.617 188.059Z" fill="white"/>
<path d="M101.67 590.052C96.7848 592.138 92.4609 592.293 87.3068 591.049C86.5098 591.18 87.5484 591.882 87.8066 592.102C90.1699 593.971 94.0188 594.018 97.0569 593.86C89.695 598.136 80.3198 601.799 71.786 600.855C61.8777 599.958 51.6277 592.877 50.6141 582.449C56.7513 580.269 62.969 576.478 66.1293 570.572C69.4783 562.588 61.2139 558.55 54.5158 563.39C49.0839 567.317 46.243 574.068 46.0264 580.699C20.2835 585.89 3.50476 563.532 8.89217 539.286C8.89998 539.256 8.90166 539.225 8.89714 539.195C8.89261 539.165 8.88197 539.136 8.86585 539.11C8.84974 539.084 8.82849 539.061 8.80341 539.044C8.77834 539.026 8.74995 539.014 8.72 539.008C8.69119 539 8.66108 538.998 8.63144 539.002C8.60179 539.006 8.57321 539.015 8.54735 539.03C8.5215 539.045 8.49889 539.065 8.48086 539.089C8.46282 539.113 8.44971 539.14 8.4423 539.169C1.69692 564.34 19.3476 588.02 46.1903 583.582C47.065 591.305 52.558 597.909 59.3922 601.263C71.5639 607.425 87.5345 603.232 97.7872 595.007C97.5262 596.395 96.7459 597.639 96.4793 599.022C96.1683 600.641 96.782 603.604 97.5179 602.688C97.8445 601.144 98.2892 599.626 98.8481 598.15C99.3868 596.648 100.042 594.968 100.65 593.493L100.773 593.215L101.978 590.388C101.998 590.344 102.005 590.295 101.998 590.247C101.99 590.199 101.968 590.154 101.935 590.118C101.903 590.082 101.86 590.057 101.812 590.045C101.765 590.033 101.715 590.036 101.67 590.052ZM53.541 570.449C57.6816 562.493 67.1484 563.824 61.6999 571.313C58.7104 574.845 54.8947 577.584 50.5919 579.286C50.8837 576.153 51.8928 573.13 53.541 570.449Z" fill="white"/>
<path d="M12.5994 575.812C12.6192 575.788 12.6447 575.769 12.6736 575.757C12.7025 575.746 12.7338 575.741 12.7648 575.745C12.7957 575.748 12.8253 575.76 12.8508 575.778C12.8762 575.796 12.8967 575.82 12.9104 575.848C15.4459 580.935 21.1193 584.593 26.1485 584.97C26.1937 584.973 26.2361 584.993 26.267 585.026C26.298 585.059 26.3152 585.103 26.3151 585.148C26.3146 585.194 26.2991 585.238 26.271 585.273C26.2428 585.309 26.2037 585.334 26.1596 585.345C20.3751 586.767 14.4961 581.263 12.5522 576.162C12.5296 576.104 12.523 576.04 12.5333 575.979C12.5436 575.917 12.5702 575.859 12.6105 575.812H12.5994Z" fill="white"/>
<path d="M66.8124 559.008C70.1226 558.642 72.1748 562.827 70.6086 565.57C70.5986 565.589 70.5825 565.604 70.563 565.612C70.5434 565.621 70.5216 565.623 70.501 565.617C70.4804 565.612 70.4623 565.599 70.4495 565.582C70.4368 565.565 70.4302 565.544 70.4309 565.523C70.4309 562.821 69.4034 560.247 66.7902 559.191C66.7698 559.184 66.7524 559.171 66.7409 559.152C66.7295 559.134 66.7246 559.112 66.7272 559.091C66.7298 559.069 66.7397 559.049 66.7552 559.034C66.7707 559.019 66.7909 559.01 66.8124 559.008Z" fill="white"/>
<path d="M11.9719 574.115C11.7085 574.138 11.4461 574.062 11.236 573.901C11.0769 573.787 10.9559 573.627 10.8889 573.443C10.8245 573.265 10.8158 573.071 10.8639 572.888C10.9283 572.639 11.0679 572.416 11.2638 572.249C11.4986 572.313 11.7178 572.425 11.9081 572.577C12.0365 572.678 12.134 572.814 12.1894 572.968C12.2449 573.122 12.2561 573.289 12.2219 573.449C12.169 573.681 12.0849 573.905 11.9719 574.115Z" fill="white"/>
<path d="M70.2392 567.334C70.2419 567.318 70.2496 567.304 70.261 567.293C70.2725 567.281 70.2872 567.274 70.3029 567.272C70.3187 567.27 70.3348 567.273 70.3488 567.281C70.3628 567.288 70.374 567.3 70.3809 567.314C70.4571 567.466 70.5015 567.631 70.5114 567.8C70.5234 568.029 70.4913 568.258 70.417 568.475C70.3429 568.691 70.2268 568.89 70.0754 569.061C69.9646 569.189 69.8284 569.293 69.6755 569.367C69.6614 569.373 69.6459 569.374 69.6308 569.371C69.6158 569.369 69.6019 569.361 69.5909 569.351C69.5799 569.34 69.5724 569.326 69.5691 569.311C69.5659 569.296 69.5672 569.281 69.5728 569.267C69.6422 569.122 69.6977 568.989 69.7533 568.856C69.8282 568.675 69.8921 568.495 69.956 568.314C70.0198 568.134 70.0782 567.953 70.1309 567.759C70.1698 567.625 70.2059 567.489 70.2392 567.334Z" fill="white"/>
<path d="M68.8812 597.47C73.1884 598.55 79.3839 598.32 83.3495 596.262C83.358 596.256 83.3684 596.254 83.3786 596.255C83.3887 596.257 83.3977 596.263 83.4036 596.272C83.4095 596.28 83.4118 596.291 83.41 596.301C83.4082 596.311 83.4024 596.32 83.3939 596.326C79.9837 599.322 72.8107 599.641 68.8562 597.542C68.8484 597.538 68.8423 597.53 68.8391 597.522C68.836 597.513 68.8358 597.504 68.8388 597.496C68.8418 597.487 68.8476 597.48 68.8554 597.475C68.8631 597.47 68.8723 597.469 68.8812 597.47Z" fill="white"/>
</svg>
