<svg width="26" height="26" viewBox="0 0 26 26" fill="none" xmlns="http://www.w3.org/2000/svg">
<path d="M12.0467 4.06892V8.56454C12.0467 9.45878 11.6914 10.3164 11.0591 10.9487C10.4268 11.581 9.56919 11.9363 8.67495 11.9363H4.17933C3.2851 11.9363 2.42749 11.581 1.79517 10.9487C1.16285 10.3164 0.807617 9.45878 0.807617 8.56454V4.06892C0.807617 3.17469 1.16285 2.31708 1.79517 1.68476C2.42749 1.05244 3.2851 0.697205 4.17933 0.697205H8.67495C9.56919 0.697205 10.4268 1.05244 11.0591 1.68476C11.6914 2.31708 12.0467 3.17469 12.0467 4.06892ZM22.1618 0.697205H17.6662C16.772 0.697205 15.9144 1.05244 15.282 1.68476C14.6497 2.31708 14.2945 3.17469 14.2945 4.06892V8.56454C14.2945 9.45878 14.6497 10.3164 15.282 10.9487C15.9144 11.581 16.772 11.9363 17.6662 11.9363H22.1618C23.0561 11.9363 23.9137 11.581 24.546 10.9487C25.1783 10.3164 25.5335 9.45878 25.5335 8.56454V4.06892C25.5335 3.17469 25.1783 2.31708 24.546 1.68476C23.9137 1.05244 23.0561 0.697205 22.1618 0.697205ZM8.67495 14.1841H4.17933C3.2851 14.1841 2.42749 14.5393 1.79517 15.1716C1.16285 15.8039 0.807617 16.6615 0.807617 17.5558V22.0514C0.807617 22.9456 1.16285 23.8032 1.79517 24.4356C2.42749 25.0679 3.2851 25.4231 4.17933 25.4231H8.67495C9.56919 25.4231 10.4268 25.0679 11.0591 24.4356C11.6914 23.8032 12.0467 22.9456 12.0467 22.0514V17.5558C12.0467 16.6615 11.6914 15.8039 11.0591 15.1716C10.4268 14.5393 9.56919 14.1841 8.67495 14.1841ZM22.1618 14.1841H17.6662C16.772 14.1841 15.9144 14.5393 15.282 15.1716C14.6497 15.8039 14.2945 16.6615 14.2945 17.5558V22.0514C14.2945 22.9456 14.6497 23.8032 15.282 24.4356C15.9144 25.0679 16.772 25.4231 17.6662 25.4231H22.1618C23.0561 25.4231 23.9137 25.0679 24.546 24.4356C25.1783 23.8032 25.5335 22.9456 25.5335 22.0514V17.5558C25.5335 16.6615 25.1783 15.8039 24.546 15.1716C23.9137 14.5393 23.0561 14.1841 22.1618 14.1841Z" fill="white"/>
</svg>
