<svg width="21" height="21" viewBox="0 0 21 21" fill="none" xmlns="http://www.w3.org/2000/svg">
<path d="M2.91211 12.1382H6.69824C7.25215 12.1383 7.78313 12.3588 8.1748 12.7505C8.56646 13.1422 8.78706 13.6731 8.78711 14.2271V18.0122C8.78711 18.5663 8.56658 19.098 8.1748 19.4897C7.78313 19.8814 7.25213 20.1019 6.69824 20.1021H2.91211C2.35819 20.102 1.82726 19.8814 1.43555 19.4897C1.04377 19.098 0.823242 18.5663 0.823242 18.0122V14.2271C0.823287 13.6731 1.04382 13.1422 1.43555 12.7505C1.82727 12.3588 2.35813 12.1382 2.91211 12.1382ZM14.2686 12.1382H18.0537C18.6078 12.1382 19.1395 12.3587 19.5312 12.7505C19.9229 13.1422 20.1435 13.6731 20.1436 14.2271V18.0122C20.1436 18.5663 19.923 19.098 19.5312 19.4897C19.1395 19.8815 18.6078 20.1021 18.0537 20.1021H14.2686C13.7146 20.102 13.1837 19.8814 12.792 19.4897C12.4002 19.098 12.1797 18.5663 12.1797 18.0122V14.2271C12.1797 13.673 12.4003 13.1422 12.792 12.7505C13.1837 12.3587 13.7146 12.1382 14.2686 12.1382ZM2.91211 0.781738H6.69824C7.25215 0.781855 7.78313 1.00237 8.1748 1.39404C8.56647 1.78576 8.78705 2.31668 8.78711 2.87061V6.65674C8.78699 7.21064 8.56648 7.74162 8.1748 8.1333C7.78313 8.52498 7.25215 8.74549 6.69824 8.74561H2.91211C2.35818 8.74554 1.82726 8.52496 1.43555 8.1333C1.04387 7.74162 0.823359 7.21064 0.823242 6.65674V2.87061C0.823303 2.31663 1.04382 1.78577 1.43555 1.39404C1.82727 1.00232 2.35813 0.781799 2.91211 0.781738ZM14.2686 0.781738H18.0537C18.6078 0.781738 19.1395 1.00226 19.5312 1.39404C19.9229 1.78576 20.1435 2.31669 20.1436 2.87061V6.65674C20.1434 7.21063 19.9229 7.74163 19.5312 8.1333C19.1395 8.52508 18.6078 8.74561 18.0537 8.74561H14.2686C13.7146 8.74556 13.1837 8.52496 12.792 8.1333C12.4003 7.74162 12.1798 7.21064 12.1797 6.65674V2.87061C12.1797 2.31663 12.4003 1.78577 12.792 1.39404C13.1837 1.00232 13.7146 0.781783 14.2686 0.781738Z" stroke="white" stroke-opacity="0.5" stroke-width="1.5"/>
<g clip-path="url(#clip0_1_2437)">
<path d="M9.54399 2.83007V6.64825C9.54399 7.40773 9.24229 8.13611 8.70525 8.67315C8.16821 9.21018 7.43984 9.51188 6.68035 9.51188H2.86217C2.10269 9.51188 1.37431 9.21018 0.837275 8.67315C0.300239 8.13611 -0.00146484 7.40773 -0.00146484 6.64825V2.83007C-0.00146484 2.07058 0.300239 1.34221 0.837275 0.80517C1.37431 0.268134 2.10269 -0.0335693 2.86217 -0.0335693H6.68035C7.43984 -0.0335693 8.16821 0.268134 8.70525 0.80517C9.24229 1.34221 9.54399 2.07058 9.54399 2.83007ZM18.1349 -0.0335693H14.3167C13.5572 -0.0335693 12.8289 0.268134 12.2918 0.80517C11.7548 1.34221 11.4531 2.07058 11.4531 2.83007V6.64825C11.4531 7.40773 11.7548 8.13611 12.2918 8.67315C12.8289 9.21018 13.5572 9.51188 14.3167 9.51188H18.1349C18.8944 9.51188 19.6228 9.21018 20.1598 8.67315C20.6968 8.13611 20.9985 7.40773 20.9985 6.64825V2.83007C20.9985 2.07058 20.6968 1.34221 20.1598 0.80517C19.6228 0.268134 18.8944 -0.0335693 18.1349 -0.0335693ZM6.68035 11.421H2.86217C2.10269 11.421 1.37431 11.7227 0.837275 12.2597C0.300239 12.7968 -0.00146484 13.5251 -0.00146484 14.2846V18.1028C-0.00146484 18.8623 0.300239 19.5907 0.837275 20.1277C1.37431 20.6647 2.10269 20.9664 2.86217 20.9664H6.68035C7.43984 20.9664 8.16821 20.6647 8.70525 20.1277C9.24229 19.5907 9.54399 18.8623 9.54399 18.1028V14.2846C9.54399 13.5251 9.24229 12.7968 8.70525 12.2597C8.16821 11.7227 7.43984 11.421 6.68035 11.421ZM18.1349 11.421H14.3167C13.5572 11.421 12.8289 11.7227 12.2918 12.2597C11.7548 12.7968 11.4531 13.5251 11.4531 14.2846V18.1028C11.4531 18.8623 11.7548 19.5907 12.2918 20.1277C12.8289 20.6647 13.5572 20.9664 14.3167 20.9664H18.1349C18.8944 20.9664 19.6228 20.6647 20.1598 20.1277C20.6968 19.5907 20.9985 18.8623 20.9985 18.1028V14.2846C20.9985 13.5251 20.6968 12.7968 20.1598 12.2597C19.6228 11.7227 18.8944 11.421 18.1349 11.421Z" fill="white"/>
</g>
<defs>
<clipPath id="clip0_1_2437">
<rect width="21" height="21" fill="white"/>
</clipPath>
</defs>
</svg>
