<svg width="25" height="25" viewBox="0 0 25 25" fill="none" xmlns="http://www.w3.org/2000/svg">
<path d="M6.86603 13.6088V23.7225C6.86603 24.0206 6.74764 24.3064 6.5369 24.5171C6.32615 24.7279 6.04032 24.8463 5.74228 24.8463H1.24729C0.949248 24.8463 0.663418 24.7279 0.452674 24.5171C0.24193 24.3064 0.123535 24.0206 0.123535 23.7225V13.6088C0.123535 13.3107 0.24193 13.0249 0.452674 12.8142C0.663418 12.6034 0.949248 12.485 1.24729 12.485H5.74228C6.04032 12.485 6.32615 12.6034 6.5369 12.8142C6.74764 13.0249 6.86603 13.3107 6.86603 13.6088ZM14.7323 0.123779H10.2373C9.93925 0.123779 9.65342 0.242174 9.44267 0.452918C9.23193 0.663662 9.11353 0.949492 9.11353 1.24753V23.7225C9.11353 24.0206 9.23193 24.3064 9.44267 24.5171C9.65342 24.7279 9.93925 24.8463 10.2373 24.8463H14.7323C15.0303 24.8463 15.3162 24.7279 15.5269 24.5171C15.7376 24.3064 15.856 24.0206 15.856 23.7225V1.24753C15.856 0.949492 15.7376 0.663662 15.5269 0.452918C15.3162 0.242174 15.0303 0.123779 14.7323 0.123779ZM23.7223 5.74253H19.2273C18.9292 5.74253 18.6434 5.86092 18.4327 6.07167C18.2219 6.28241 18.1035 6.56824 18.1035 6.86628V23.7225C18.1035 24.0206 18.2219 24.3064 18.4327 24.5171C18.6434 24.7279 18.9292 24.8463 19.2273 24.8463H23.7223C24.0203 24.8463 24.3062 24.7279 24.5169 24.5171C24.7276 24.3064 24.846 24.0206 24.846 23.7225V6.86628C24.846 6.56824 24.7276 6.28241 24.5169 6.07167C24.3062 5.86092 24.0203 5.74253 23.7223 5.74253Z" fill="white"/>
</svg>
