<svg width="28" height="28" viewBox="0 0 28 28" fill="none" xmlns="http://www.w3.org/2000/svg">
<path d="M14.1731 18.0417C16.5008 18.0417 18.3878 16.1547 18.3878 13.827C18.3878 11.4993 16.5008 9.61237 14.1731 9.61237C11.8455 9.61237 9.9585 11.4993 9.9585 13.827C9.9585 16.1547 11.8455 18.0417 14.1731 18.0417Z" stroke="white" stroke-opacity="0.5" stroke-width="1.68586" stroke-linecap="round" stroke-linejoin="round"/>
<path d="M5.05127 19.1048C4.58552 18.3026 4.22871 17.4419 3.99023 16.5454L5.75828 14.3327C5.73826 13.9945 5.73826 13.6553 5.75828 13.317L3.99129 11.1043C4.22935 10.2077 4.58544 9.34675 5.05022 8.54393L7.86455 8.22783C8.08928 7.97463 8.32889 7.73503 8.58209 7.51029L8.89819 4.69702C9.69985 4.23445 10.5594 3.88049 11.4544 3.64441L13.6671 5.41245C14.0053 5.39243 14.3445 5.39243 14.6828 5.41245L16.8955 3.64546C17.7921 3.88353 18.6531 4.23962 19.4559 4.70439L19.772 7.51872C20.0252 7.74346 20.2648 7.98306 20.4895 8.23626L23.3028 8.55236C23.7685 9.35458 24.1254 10.2153 24.3638 11.1117L22.5958 13.3244C22.6158 13.6627 22.6158 14.0018 22.5958 14.3401L24.3628 16.5528C24.1264 17.4491 23.7721 18.3101 23.3091 19.1132L20.4948 19.4293C20.27 19.6825 20.0304 19.9221 19.7772 20.1468L19.4611 22.9601C18.6589 23.4259 17.7982 23.7827 16.9018 24.0212L14.6891 22.2531C14.3508 22.2731 14.0117 22.2731 13.6734 22.2531L11.4607 24.0201C10.5644 23.7837 9.70339 23.4294 8.9003 22.9664L8.5842 20.1521C8.331 19.9274 8.09139 19.6878 7.86665 19.4346L5.05127 19.1048Z" stroke="white" stroke-opacity="0.5" stroke-width="1.68586" stroke-linecap="round" stroke-linejoin="round"/>
</svg>
