<svg width="28" height="28" viewBox="0 0 28 28" fill="none" xmlns="http://www.w3.org/2000/svg">
<path d="M14.1726 19.4439C13.5765 19.4439 13.0049 19.2071 12.5834 18.7857C12.1619 18.3642 11.9251 17.7925 11.9251 17.1964C11.9251 15.9491 12.9253 14.9489 14.1726 14.9489C14.7687 14.9489 15.3404 15.1857 15.7618 15.6072C16.1833 16.0287 16.4201 16.6004 16.4201 17.1964C16.4201 17.7925 16.1833 18.3642 15.7618 18.7857C15.3404 19.2071 14.7687 19.4439 14.1726 19.4439ZM20.9151 22.8152V11.5777H7.43012V22.8152H20.9151ZM20.9151 9.33018C21.5112 9.33018 22.0829 9.56697 22.5043 9.98846C22.9258 10.4099 23.1626 10.9816 23.1626 11.5777V22.8152C23.1626 23.4113 22.9258 23.9829 22.5043 24.4044C22.0829 24.8259 21.5112 25.0627 20.9151 25.0627H7.43012C6.83404 25.0627 6.26238 24.8259 5.84089 24.4044C5.41941 23.9829 5.18262 23.4113 5.18262 22.8152V11.5777C5.18262 10.3303 6.18275 9.33018 7.43012 9.33018H8.55387V7.08268C8.55387 5.59249 9.14584 4.16334 10.1996 3.10962C11.2533 2.0559 12.6824 1.46393 14.1726 1.46393C14.9105 1.46393 15.6411 1.60926 16.3228 1.89163C17.0045 2.174 17.6239 2.58787 18.1457 3.10962C18.6674 3.63137 19.0813 4.25078 19.3637 4.93248C19.646 5.61417 19.7914 6.34481 19.7914 7.08268V9.33018H20.9151ZM14.1726 3.71143C13.2785 3.71143 12.421 4.06661 11.7888 4.69884C11.1566 5.33108 10.8014 6.18857 10.8014 7.08268V9.33018H17.5439V7.08268C17.5439 6.18857 17.1887 5.33108 16.5565 4.69884C15.9242 4.06661 15.0667 3.71143 14.1726 3.71143Z" fill="#888890"/>
</svg>
