<svg width="19" height="24" viewBox="0 0 19 24" fill="none" xmlns="http://www.w3.org/2000/svg">
<path d="M9.48512 18.1037C10.0812 18.1037 10.6529 17.867 11.0743 17.4455C11.4958 17.024 11.7326 16.4523 11.7326 15.8562C11.7326 15.2602 11.4958 14.6885 11.0743 14.267C10.6529 13.8455 10.0812 13.6087 9.48512 13.6087C8.88904 13.6087 8.31738 13.8455 7.8959 14.267C7.47441 14.6885 7.23762 15.2602 7.23762 15.8562C7.23762 16.4523 7.47441 17.024 7.8959 17.4455C8.31738 17.867 8.88904 18.1037 9.48512 18.1037ZM16.2276 7.99C16.8237 7.99 17.3954 8.22679 17.8168 8.64828C18.2383 9.06976 18.4751 9.64142 18.4751 10.2375V21.475C18.4751 22.0711 18.2383 22.6427 17.8168 23.0642C17.3954 23.4857 16.8237 23.7225 16.2276 23.7225H2.74262C2.14654 23.7225 1.57488 23.4857 1.15339 23.0642C0.731907 22.6427 0.495117 22.0711 0.495117 21.475V10.2375C0.495117 9.64142 0.731907 9.06976 1.15339 8.64828C1.57488 8.22679 2.14654 7.99 2.74262 7.99H3.86637V5.7425C3.86637 4.25231 4.45834 2.82316 5.51206 1.76944C6.56578 0.715723 7.99493 0.123749 9.48512 0.123749C10.223 0.123749 10.9536 0.269082 11.6353 0.551451C12.317 0.833819 12.9364 1.24769 13.4582 1.76944C13.9799 2.29119 14.3938 2.9106 14.6762 3.5923C14.9585 4.27399 15.1039 5.00463 15.1039 5.7425V7.99H16.2276ZM9.48512 2.37125C8.59101 2.37125 7.73351 2.72643 7.10128 3.35866C6.46905 3.9909 6.11387 4.84839 6.11387 5.7425V7.99H12.8564V5.7425C12.8564 4.84839 12.5012 3.9909 11.869 3.35866C11.2367 2.72643 10.3792 2.37125 9.48512 2.37125Z" fill="white"/>
</svg>
