<svg width="16" height="9" viewBox="0 0 16 9" fill="none" xmlns="http://www.w3.org/2000/svg">
<path d="M15.0315 6.3047C14.9672 6.34134 14.8964 6.36494 14.823 6.37417C14.7496 6.3834 14.6751 6.37806 14.6038 6.35847C14.5325 6.33887 14.4657 6.30541 14.4074 6.25999C14.349 6.21457 14.3002 6.15808 14.2636 6.09376L12.9277 3.75939C12.151 4.28454 11.2943 4.68015 10.3908 4.93079L10.8036 7.4072C10.8157 7.4801 10.8134 7.55469 10.7968 7.6267C10.7801 7.69871 10.7494 7.76673 10.7064 7.82687C10.6635 7.88701 10.6091 7.9381 10.5464 7.9772C10.4836 8.01631 10.4138 8.04267 10.3409 8.05478C10.3109 8.05969 10.2806 8.06227 10.2502 8.06251C10.1171 8.06231 9.98845 8.01494 9.887 7.92882C9.78556 7.84269 9.71794 7.7234 9.69615 7.59212L9.29044 5.16072C8.43488 5.27978 7.56695 5.27978 6.71138 5.16072L6.30568 7.59212C6.28385 7.72364 6.21602 7.84312 6.11428 7.92927C6.01255 8.01543 5.88352 8.06265 5.75021 8.06251C5.71912 8.06238 5.68808 8.0598 5.6574 8.05478C5.58448 8.04267 5.51467 8.01631 5.45195 7.9772C5.38923 7.9381 5.33483 7.88701 5.29186 7.82687C5.24889 7.76673 5.2182 7.69871 5.20154 7.6267C5.18487 7.55469 5.18256 7.4801 5.19474 7.4072L5.60958 4.93079C4.70651 4.67935 3.85022 4.28303 3.07411 3.75728L1.7424 6.09376C1.70546 6.15812 1.65621 6.21457 1.59746 6.2599C1.53871 6.30522 1.47161 6.33853 1.39998 6.35792C1.32836 6.37732 1.25361 6.38241 1.18002 6.37292C1.10643 6.36342 1.03543 6.33953 0.971068 6.30259C0.90671 6.26566 0.850257 6.21641 0.804932 6.15766C0.759607 6.0989 0.726298 6.0318 0.706906 5.96018C0.687515 5.88855 0.682421 5.81381 0.691915 5.74022C0.701409 5.66662 0.725305 5.59562 0.76224 5.53126L2.16849 3.07032C1.67454 2.64358 1.22034 2.1729 0.811458 1.66407C0.760467 1.60714 0.721613 1.54041 0.697268 1.46797C0.672923 1.39552 0.663597 1.31887 0.669861 1.24269C0.676125 1.16652 0.697846 1.09242 0.733699 1.02493C0.769552 0.957427 0.818784 0.897943 0.878391 0.850104C0.937998 0.802266 1.00673 0.767077 1.08039 0.746684C1.15405 0.726292 1.23109 0.721124 1.30681 0.731498C1.38253 0.741871 1.45535 0.767567 1.52081 0.807017C1.58627 0.846467 1.64301 0.898844 1.68755 0.96095C2.85474 2.40517 4.89661 4.12501 8.00021 4.12501C11.1038 4.12501 13.1457 2.40306 14.3129 0.96095C14.3569 0.897572 14.4135 0.843935 14.4792 0.803374C14.5448 0.762813 14.6181 0.736197 14.6945 0.725181C14.7709 0.714165 14.8487 0.718986 14.9232 0.739343C14.9976 0.759699 15.0671 0.795157 15.1272 0.843509C15.1874 0.891862 15.2369 0.952074 15.2728 1.0204C15.3087 1.08873 15.3301 1.16371 15.3358 1.24068C15.3414 1.31764 15.3312 1.39495 15.3057 1.46779C15.2802 1.54063 15.24 1.60744 15.1876 1.66407C14.7787 2.1729 14.3245 2.64358 13.8305 3.07032L15.2368 5.53126C15.2745 5.59541 15.2992 5.66642 15.3093 5.74016C15.3194 5.8139 15.3147 5.88892 15.2957 5.96086C15.2766 6.0328 15.2434 6.10024 15.198 6.15926C15.1527 6.21828 15.0961 6.26772 15.0315 6.3047Z" fill="white"/>
</svg>
