<svg width="18" height="18" viewBox="0 0 18 18" fill="none" xmlns="http://www.w3.org/2000/svg">
<path d="M16.0312 5.6953C15.967 5.65866 15.8961 5.63506 15.8227 5.62583C15.7494 5.6166 15.6749 5.62194 15.6036 5.64153C15.5322 5.66113 15.4655 5.69459 15.4071 5.74001C15.3488 5.78543 15.2999 5.84192 15.2634 5.90624L13.9275 8.24061C13.1508 7.71546 12.294 7.31985 11.3906 7.06921L11.8033 4.5928C11.8155 4.5199 11.8132 4.44531 11.7965 4.3733C11.7799 4.30129 11.7492 4.23327 11.7062 4.17313C11.6632 4.11299 11.6088 4.0619 11.5461 4.0228C11.4834 3.98369 11.4136 3.95733 11.3407 3.94522C11.3107 3.94031 11.2804 3.93773 11.25 3.93749C11.1169 3.93769 10.9882 3.98506 10.8868 4.07118C10.7853 4.15731 10.7177 4.2766 10.6959 4.40788L10.2902 6.83929C9.43463 6.72022 8.5667 6.72022 7.71114 6.83929L7.30543 4.40788C7.2836 4.27637 7.21577 4.15688 7.11404 4.07073C7.0123 3.98457 6.88328 3.93736 6.74996 3.93749C6.71887 3.93762 6.68784 3.94021 6.65715 3.94522C6.58424 3.95733 6.51442 3.98369 6.4517 4.0228C6.38898 4.0619 6.33458 4.11299 6.29162 4.17313C6.24865 4.23327 6.21796 4.30129 6.20129 4.3733C6.18463 4.44531 6.18232 4.5199 6.1945 4.5928L6.60934 7.06921C5.70627 7.32065 4.84998 7.71697 4.07387 8.24272L2.74215 5.90624C2.70522 5.84188 2.65597 5.78543 2.59722 5.7401C2.53847 5.69478 2.47136 5.66147 2.39974 5.64208C2.32811 5.62269 2.25337 5.61759 2.17978 5.62709C2.10618 5.63658 2.03518 5.66048 1.97082 5.69741C1.90647 5.73434 1.85001 5.78359 1.80469 5.84234C1.75936 5.9011 1.72605 5.9682 1.70666 6.03982C1.68727 6.11145 1.68218 6.18619 1.69167 6.25978C1.70116 6.33338 1.72506 6.40438 1.762 6.46874L3.16825 8.92968C2.6743 9.35642 2.22009 9.8271 1.81121 10.3359C1.76022 10.3929 1.72137 10.4596 1.69702 10.532C1.67268 10.6045 1.66335 10.6811 1.66962 10.7573C1.67588 10.8335 1.6976 10.9076 1.73345 10.9751C1.76931 11.0426 1.81854 11.1021 1.87815 11.1499C1.93775 11.1977 2.00648 11.2329 2.08014 11.2533C2.1538 11.2737 2.23084 11.2789 2.30657 11.2685C2.38229 11.2581 2.4551 11.2324 2.52057 11.193C2.58603 11.1535 2.64276 11.1012 2.68731 11.0391C3.8545 9.59483 5.89637 7.87499 8.99996 7.87499C12.1036 7.87499 14.1454 9.59694 15.3126 11.0391C15.3567 11.1024 15.4133 11.1561 15.4789 11.1966C15.5446 11.2372 15.6179 11.2638 15.6943 11.2748C15.7707 11.2858 15.8485 11.281 15.9229 11.2607C15.9974 11.2403 16.0668 11.2048 16.127 11.1565C16.1871 11.1081 16.2367 11.0479 16.2726 10.9796C16.3084 10.9113 16.3299 10.8363 16.3355 10.7593C16.3412 10.6824 16.331 10.605 16.3055 10.5322C16.28 10.4594 16.2397 10.3926 16.1873 10.3359C15.7784 9.8271 15.3242 9.35642 14.8303 8.92968L16.2365 6.46874C16.2743 6.40459 16.2989 6.33358 16.309 6.25984C16.3191 6.1861 16.3145 6.11108 16.2954 6.03914C16.2763 5.9672 16.2431 5.89976 16.1978 5.84074C16.1524 5.78172 16.0958 5.73228 16.0312 5.6953Z" fill="white"/>
<circle cx="9.00244" cy="11.5593" r="1.79004" fill="white"/>
</svg>
